<?xml version="1.0" encoding="UTF-8"?><svg id="a" xmlns="http://www.w3.org/2000/svg" viewBox="0 0 981 955"><defs><style>.b{fill:#1d1d1b;}</style></defs><path class="b" d="M485.73,387.56s-.08,0-.13,0h-4.38v.11c-60.19,2.38-108.43,52.06-108.43,112.83s50.66,112.94,112.94,112.94,112.94-50.66,112.94-112.94h0v-112.74l-112.83-.2s-.07,0-.11,0Z"/><path class="b" d="M908.79,413.92l-178.08-178.08V504.9h-.06c-2.36,133.06-111.31,240.58-244.93,240.58s-244.98-109.9-244.98-244.98,109.9-244.98,244.98-244.98c15.26,0,30.2,1.4,44.69,4.09l68.25,128.16V103.8l-41.25-41.25c-37.42-37.42-98.08-37.42-135.5,0L70.55,413.92c-37.42,37.42-37.42,98.08,0,135.5l351.37,351.37c37.42,37.42,98.08,37.42,135.5,0l351.37-351.37c37.42-37.42,37.42-98.08,0-135.5Z"/></svg>