<?xml version="1.0" encoding="UTF-8"?><svg id="a" xmlns="http://www.w3.org/2000/svg" viewBox="0 0 3840 1080"><defs><style>.b{fill:#5b798d;}</style></defs><path class="b" d="M2128.77,243.37l-79.88,474.32c-.4,2.25-1.11,2.83-3.42,2.83-1.79,0-2.25-.38-2.59-2.05l-72.93-390.61c-10.46-56.06-41-84.49-90.77-84.49s-80.3,28.31-90.77,84.14l-73.33,390.88c-.28,1.36-.55,2.13-3.03,2.13-1.32,0-2.46,0-2.99-3.17l-79.89-473.98h-126.64l100.04,478.76c15.77,74.96,47.7,112.96,94.92,112.96,32.77,0,57.71-7.33,74.14-21.78,16.35-14.38,27.69-37.97,33.71-70.14l70.97-387.34c.53-3.2,1.46-3.2,2.44-3.2,1.24,0,2.31,0,2.86,3.28l70.56,387.36c6.03,32.14,17.46,55.72,33.98,70.08,16.59,14.43,41.63,21.74,74.45,21.74,29.51,0,52.69-12.86,68.95-38.3,9.99-16.2,18.63-41.32,25.68-74.67l100.18-478.75h-126.65Z"/><rect class="b" x="2720.56" y="242.96" width="121.68" height="583.55"/><rect class="b" x="2925.4" y="242.96" width="121.68" height="583.55"/><polygon class="b" points="3795 358.05 3693.02 358.05 3693.02 245.46 3576.33 245.46 3576.33 824.02 3693.02 824.02 3693.02 475.75 3795 475.75 3795 358.05"/><path class="b" d="M1353.1,243.37v368.44h0c0,55.49-45.15,100.64-100.64,100.64s-100.63-45.14-100.63-100.64,42.99-98.42,96.62-100.54v-.1h3.9s.08,0,.11,0c.03,0,.06,0,.1,0l100.54,.18-60.82-114.2c-12.91-2.39-26.22-3.64-39.82-3.64-120.37,0-218.29,97.93-218.29,218.29s97.93,218.29,218.29,218.29,216.14-95.81,218.24-214.37h.05V243.37h-117.66Z"/><path class="b" d="M2446.47,716.43s-.06,0-.1,0c-.04,0-.08,0-.11,0h-3.9v-.1c-53.63-2.12-96.62-46.39-96.62-100.54s45.14-100.64,100.63-100.64,100.64,45.14,100.64,100.64h0v219.3h117.66v-223.22h-.05c-2.1-118.56-99.19-214.37-218.24-214.37s-218.29,97.93-218.29,218.29,97.93,218.29,218.29,218.29c13.6,0,26.91-1.25,39.82-3.64l60.82-114.2-100.54,.18Z"/><path class="b" d="M3398.96,616.39s0-.06,0-.1c0-.04,0-.08,0-.11v-3.9h-.1c-2.12-53.63-46.39-96.62-100.54-96.62-55.49,0-100.64,45.14-100.64,100.63,0,55.49,45.14,100.64,100.64,100.64h219.3v117.66h-223.22v-.05c-118.56-2.1-214.37-99.19-214.37-218.24,0-120.37,97.93-218.29,218.29-218.29,120.37,0,218.29,97.93,218.29,218.29,0,13.6-1.25,26.91-3.64,39.82l-114.2,60.82,.18-100.54Z"/><g><path class="b" d="M485.73,445.56s-.08,0-.13,0h-4.38v.11c-60.19,2.38-108.43,52.06-108.43,112.83s50.66,112.94,112.94,112.94,112.94-50.66,112.94-112.94h0v-112.74l-112.83-.2s-.07,0-.11,0Z"/><path class="b" d="M908.79,471.92l-178.08-178.08v269.05h-.06c-2.36,133.06-111.31,240.58-244.93,240.58s-244.98-109.9-244.98-244.98,109.9-244.98,244.98-244.98c15.26,0,30.2,1.4,44.69,4.09l68.25,128.16V161.8l-41.25-41.25c-37.42-37.42-98.08-37.42-135.5,0L70.55,471.92c-37.42,37.42-37.42,98.08,0,135.5l351.37,351.37c37.42,37.42,98.08,37.42,135.5,0l351.37-351.37c37.42-37.42,37.42-98.08,0-135.5Z"/></g></svg>