<svg xmlns="http://www.w3.org/2000/svg" xmlns:xlink="http://www.w3.org/1999/xlink" width="120pt" height="30pt" viewBox="0 0 120 30" version="1.1">
    <path style=" stroke:none;fill-rule:nonzero;fill:rgb(72.156863%,71.372549%,71.372549%);fill-opacity:1;" d="M 48.625 2.175781 L 45.292969 23.070312 C 45.277344 23.167969 45.246094 23.195312 45.148438 23.195312 C 45.074219 23.195312 45.054688 23.179688 45.042969 23.105469 L 42 5.898438 C 41.5625 3.425781 40.289062 2.175781 38.214844 2.175781 C 36.136719 2.175781 34.863281 3.421875 34.429688 5.882812 L 31.371094 23.101562 C 31.359375 23.160156 31.347656 23.195312 31.242188 23.195312 C 31.1875 23.195312 31.140625 23.195312 31.117188 23.054688 L 27.785156 2.175781 L 22.503906 2.175781 L 26.675781 23.265625 C 27.335938 26.566406 28.667969 28.242188 30.636719 28.242188 C 32.003906 28.242188 33.042969 27.917969 33.726562 27.28125 C 34.410156 26.648438 34.882812 25.609375 35.132812 24.191406 L 38.09375 7.128906 C 38.117188 6.988281 38.15625 6.988281 38.195312 6.988281 C 38.25 6.988281 38.292969 6.988281 38.316406 7.132812 L 41.257812 24.195312 C 41.511719 25.613281 41.988281 26.652344 42.675781 27.285156 C 43.367188 27.917969 44.414062 28.242188 45.78125 28.242188 C 47.011719 28.242188 47.980469 27.675781 48.65625 26.554688 C 49.074219 25.839844 49.433594 24.734375 49.726562 23.265625 L 53.90625 2.175781 Z M 48.625 2.175781 "/>
    <path style=" stroke:none;fill-rule:nonzero;fill:rgb(72.156863%,71.372549%,71.372549%);fill-opacity:1;" d="M 73.308594 2.15625 L 78.382812 2.15625 L 78.382812 27.863281 L 73.308594 27.863281 Z M 73.308594 2.15625 "/>
    <path style=" stroke:none;fill-rule:nonzero;fill:rgb(72.156863%,71.372549%,71.372549%);fill-opacity:1;" d="M 81.851562 2.15625 L 86.925781 2.15625 L 86.925781 27.863281 L 81.851562 27.863281 Z M 81.851562 2.15625 "/>
    <path style=" stroke:none;fill-rule:nonzero;fill:rgb(72.156863%,71.372549%,71.372549%);fill-opacity:1;" d="M 118.121094 7.226562 L 113.871094 7.226562 L 113.871094 2.265625 L 109.003906 2.265625 L 109.003906 27.753906 L 113.871094 27.753906 L 113.871094 12.410156 L 118.121094 12.410156 Z M 118.121094 7.226562 "/>
    <path style=" stroke:none;fill-rule:nonzero;fill:rgb(72.156863%,71.372549%,71.372549%);fill-opacity:1;" d="M 16.269531 2.175781 L 16.269531 18.40625 C 16.269531 20.851562 14.386719 22.839844 12.074219 22.839844 C 9.757812 22.839844 7.875 20.851562 7.875 18.40625 C 7.875 15.960938 9.667969 14.070312 11.90625 13.976562 L 11.90625 13.972656 L 12.070312 13.972656 C 12.070312 13.972656 12.070312 13.972656 12.074219 13.972656 C 12.074219 13.972656 12.074219 13.972656 12.078125 13.972656 L 16.269531 13.980469 L 13.734375 8.949219 C 13.195312 8.84375 12.640625 8.789062 12.074219 8.789062 C 7.054688 8.789062 2.96875 13.101562 2.96875 18.40625 C 2.96875 23.707031 7.054688 28.019531 12.074219 28.019531 C 17.09375 28.019531 21.089844 23.800781 21.175781 18.578125 L 21.179688 18.578125 L 21.179688 2.175781 Z M 16.269531 2.175781 "/>
    <path style=" stroke:none;fill-rule:nonzero;fill:rgb(72.156863%,71.372549%,71.372549%);fill-opacity:1;" d="M 61.875 23.015625 C 61.875 23.015625 61.875 23.015625 61.871094 23.015625 C 61.871094 23.015625 61.867188 23.015625 61.867188 23.015625 L 61.703125 23.015625 L 61.703125 23.011719 C 59.46875 22.917969 57.675781 20.964844 57.675781 18.582031 C 57.675781 16.195312 59.558594 14.148438 61.871094 14.148438 C 64.1875 14.148438 66.070312 16.136719 66.070312 18.582031 L 66.070312 28.242188 L 70.976562 28.242188 L 70.976562 18.410156 C 70.886719 13.183594 66.835938 8.964844 61.871094 8.964844 C 56.90625 8.964844 52.765625 13.277344 52.765625 18.582031 C 52.765625 23.882812 56.851562 28.199219 61.871094 28.199219 C 62.4375 28.199219 62.996094 28.140625 63.53125 28.035156 L 66.070312 23.007812 Z M 61.875 23.015625 "/>
    <path style=" stroke:none;fill-rule:nonzero;fill:rgb(72.156863%,71.372549%,71.372549%);fill-opacity:1;" d="M 101.605469 18.609375 C 101.605469 18.609375 101.605469 18.605469 101.605469 18.601562 C 101.605469 18.601562 101.605469 18.597656 101.605469 18.597656 L 101.605469 18.425781 L 101.601562 18.425781 C 101.511719 16.0625 99.664062 14.171875 97.40625 14.171875 C 95.09375 14.171875 93.207031 16.160156 93.207031 18.601562 C 93.207031 21.046875 95.089844 23.035156 97.40625 23.035156 L 106.554688 23.035156 L 106.554688 28.21875 L 97.242188 28.21875 C 92.296875 28.125 88.300781 23.847656 88.300781 18.605469 C 88.300781 13.300781 92.386719 8.988281 97.40625 8.988281 C 102.425781 8.988281 106.511719 13.300781 106.511719 18.605469 C 106.511719 19.203125 106.460938 19.789062 106.359375 20.359375 L 101.597656 23.035156 Z M 101.605469 18.609375 "/>

</svg>
