<svg width="237" height="118" viewBox="0 0 237 118" fill="none" xmlns="http://www.w3.org/2000/svg">
<path d="M72.662 71.0755V46.7172C72.662 33.2645 61.7564 22.3589 48.3036 22.3589V22.3589C34.8509 22.3589 23.9453 33.2645 23.9453 46.7172V71.0755" stroke="#EE2B5B" stroke-width="9.61076"/>
<path d="M72.663 62.9555L72.663 72.4282C72.663 77.6598 76.9041 81.9009 82.1357 81.9009V81.9009C87.3673 81.9009 91.6084 77.6598 91.6084 72.4282L91.6084 62.9555" stroke="#EE2B5B" stroke-width="9.61076"/>
<path d="M58.2969 95.6414L58.2969 81.2068C58.2969 75.6877 53.8228 71.2136 48.3037 71.2136V71.2136C42.7846 71.2136 38.3105 75.6877 38.3105 81.2068L38.3105 95.6414" stroke="#EE2B5B" stroke-width="9.61076"/>
<path d="M4.99994 62.9555L4.99994 72.4282C4.99994 77.6598 9.24101 81.9009 14.4726 81.9009V81.9009C19.7042 81.9009 23.9453 77.6598 23.9453 72.4282L23.9453 62.9555" stroke="#EE2B5B" stroke-width="9.61076"/>
<path fill-rule="evenodd" clip-rule="evenodd" d="M48.3069 57.5416C52.7912 57.5416 56.4264 53.9064 56.4264 49.4222C56.4264 44.9379 52.7912 41.3027 48.3069 41.3027C43.8227 41.3027 40.1875 44.9379 40.1875 49.4222C40.1875 50.2542 40.3127 51.0571 40.5452 51.8129C41.1817 50.403 42.5999 49.4218 44.2472 49.4218C46.4893 49.4218 48.3069 51.2394 48.3069 53.4815C48.3069 55.129 47.3256 56.5473 45.9155 57.1837C46.6715 57.4164 47.4746 57.5416 48.3069 57.5416Z" fill="#EE2B5B"/>
<path d="M110.851 95V26.7497H122.273V95H110.851ZM136.376 95L136.471 26.7497H148.035V68.4582L166.757 43.8122H181.023L161.164 69.4061L182.729 95H167.61L148.035 70.354V95H136.376ZM201.791 96.4219C198.094 96.4219 194.966 95.7267 192.406 94.3365C189.847 92.9146 187.904 91.0345 186.577 88.6963C185.281 86.3581 184.633 83.7829 184.633 80.9708C184.633 78.5062 185.044 76.2943 185.866 74.3353C186.687 72.3447 187.951 70.6384 189.657 69.2165C191.364 67.7631 193.575 66.5782 196.293 65.6618C198.347 64.9983 200.748 64.3979 203.497 63.8608C206.278 63.3236 209.279 62.8339 212.502 62.3915C215.757 61.9175 219.153 61.412 222.692 60.8748L218.616 63.1972C218.648 59.6583 217.858 57.0515 216.246 55.3769C214.635 53.7022 211.918 52.8649 208.094 52.8649C205.788 52.8649 203.56 53.402 201.412 54.4764C199.263 55.5507 197.762 57.3991 196.909 60.0217L186.482 56.7514C187.746 52.4225 190.147 48.9468 193.686 46.3242C197.256 43.7016 202.059 42.3904 208.094 42.3904C212.644 42.3904 216.641 43.1329 220.086 44.618C223.561 46.103 226.136 48.536 227.811 51.917C228.727 53.718 229.28 55.5665 229.47 57.4623C229.66 59.3266 229.754 61.3646 229.754 63.5764V95H219.754V83.9093L221.413 85.7104C219.106 89.4073 216.404 92.1246 213.308 93.8625C210.243 95.5688 206.404 96.4219 201.791 96.4219ZM204.066 87.3218C206.657 87.3218 208.869 86.8637 210.701 85.9473C212.534 85.031 213.987 83.9093 215.062 82.5822C216.167 81.2551 216.91 80.007 217.289 78.8379C217.89 77.3845 218.221 75.7256 218.285 73.8614C218.379 71.9655 218.427 70.433 218.427 69.2639L221.934 70.3066C218.49 70.8438 215.536 71.3178 213.071 71.7285C210.606 72.1393 208.489 72.5343 206.72 72.9134C204.95 73.261 203.386 73.656 202.028 74.0983C200.701 74.5723 199.579 75.1252 198.663 75.7572C197.746 76.3891 197.035 77.1159 196.53 77.9374C196.056 78.7589 195.819 79.7227 195.819 80.8286C195.819 82.0925 196.135 83.2142 196.767 84.1937C197.399 85.1416 198.315 85.9 199.516 86.4687C200.748 87.0375 202.265 87.3218 204.066 87.3218Z" fill="#EE2B5B"/>
</svg>
